
<svg xmlns="http://www.w3.org/2000/svg" version="1.1" xmlns:xlink="http://www.w3.org/1999/xlink" preserveAspectRatio="none" x="0px" y="0px" width="400px" height="110px" viewBox="0 0 400 110">
<defs>
<g id="Layer0_0_MEMBER_0_FILL">
<path fill="#000000" stroke="none" d="
M 81.55 43.8
Q 84 43.8 85.3 44.6 86.65 45.45 87.7 46.7 89.1 48.45 89.9 49.05 90.85 49.85 92.25 49.85 94.2 49.85 95.2 48.85 96.25 47.9 96.25 46.35 96.25 45 95.25 43.45 94.35 42 92.45 40.75 90.6 39.55 87.8 38.8 84.9 38.1 81.55 38.1 77.05 38.1 74 39.55 70.8 41 69.25 43.35 67.65 45.7 67.65 48.45 67.65 51.5 69.35 53.55 71.25 55.7 74 56.85 76.8 58.1 81.55 59.3 85.55 60.25 87.45 61.35 89.25 62.4 89.25 64.8 89.25 66.35 87.5 67.55 85.8 68.75 83.1 68.75 79.8 68.75 77.85 67.55 75.95 66.3 74.55 64 73.9 62.75 73.1 62.05 72.3 61.35 70.95 61.35 69.35 61.35 68.3 62.4 67.25 63.45 67.25 64.95 67.25 67.15 68.9 69.4 70.5 71.6 73.95 73.1 77.45 74.55 82.25 74.55 87.35 74.55 90.85 73.2 94.3 71.85 96.15 69.2 98 66.55 98 62.85 98 60.35 96.6 58.45 95.3 56.55 92.6 55.1 89.95 53.65 85.8 52.7 81.15 51.5 80.3 51.25 78.3 50.65 77.1 49.75 75.9 48.85 75.9 47.4 75.9 45.9 77.5 44.85 79.15 43.8 81.55 43.8 Z"/>
</g>

<g id="Layer0_0_MEMBER_1_FILL">
<path fill="#000000" stroke="none" d="
M 137.9 48.95
Q 136.75 45.65 134.3 43.15 132 40.75 128.65 39.4 125.2 38.1 121.25 38.1 117.25 38.1 113.9 39.4 110.6 40.7 108.25 43.1 105.85 45.55 104.7 48.85 103.45 52.25 103.45 56.35 103.45 60.4 104.65 63.7 105.95 67.1 108.3 69.5 110.6 71.85 113.9 73.25 117.25 74.55 121.25 74.55 125.3 74.55 128.65 73.25 131.9 72 134.3 69.55 136.65 67.1 137.9 63.7 139.15 60.2 139.15 56.35 139.15 52.2 137.9 48.95
M 116.6 46.1
Q 118.65 44.75 121.25 44.75 125.3 44.75 127.7 47.8 130.15 50.75 130.15 56.35 130.15 61.75 127.7 64.8 125.3 67.9 121.25 67.9 118.65 67.9 116.55 66.5 114.55 65 113.5 62.45 112.45 59.85 112.45 56.35 112.45 52.8 113.5 50.1 114.65 47.4 116.6 46.1 Z"/>
</g>

<g id="Layer0_0_MEMBER_2_FILL">
<path fill="#FF6600" stroke="none" d="
M 162.3 44.95
Q 165.1 44.95 166.85 46.2 168.65 47.4 170.25 49.9 171.2 51.2 171.95 51.8 172.75 52.35 173.8 52.35 175.55 52.35 176.7 51.25 177.9 50.15 177.9 48.5 177.9 46.9 176.85 45.1 175.65 43.2 173.75 41.7 171.85 40.15 168.8 39.05 166 38.05 162.4 38.05 156.75 38.05 152.75 40.35 148.65 42.7 146.6 46.9 144.45 51.05 144.45 56.65 144.45 64.8 149.1 69.65 153.9 74.5 162.1 74.5 166.05 74.5 169.1 73.45 172.25 72.4 174.3 70.65 176.4 68.85 177.35 67.05 178.35 65.05 178.35 63.45 178.35 62.05 177.25 60.8 176.2 59.55 174.55 59.55 173.2 59.55 172.2 60.4 171.3 61.25 170.45 62.75 168.9 65.35 167.05 66.55 165.15 67.8 162.4 67.8 160.4 67.8 158.75 67.05 157.1 66.3 155.9 64.8 154.7 63.3 154.1 61.15 153.45 59.15 153.45 56.5 153.45 51.1 155.9 48.05 158.25 44.95 162.3 44.95 Z"/>
</g>

<g id="Layer0_0_MEMBER_3_FILL">
<path fill="#FF6600" stroke="none" d="
M 218.5 48.95
Q 217.35 45.65 214.9 43.15 212.6 40.75 209.25 39.4 205.8 38.1 201.85 38.1 197.95 38.1 194.5 39.4 191.2 40.7 188.85 43.1 186.45 45.55 185.3 48.85 184.05 52.25 184.05 56.35 184.05 60.4 185.25 63.7 186.55 67.1 188.9 69.5 191.2 71.85 194.5 73.25 197.85 74.55 201.85 74.55 205.9 74.55 209.25 73.25 212.5 72 214.9 69.55 217.25 67.1 218.5 63.7 219.75 60.2 219.75 56.35 219.75 52.2 218.5 48.95
M 197.2 46.1
Q 199.25 44.75 201.85 44.75 205.9 44.75 208.35 47.8 210.75 50.8 210.75 56.35 210.75 61.75 208.35 64.8 205.85 67.9 201.85 67.9 199.25 67.9 197.15 66.5 195.15 65 194.1 62.45 193.05 59.85 193.05 56.35 193.05 52.8 194.1 50.1 195.25 47.4 197.2 46.1 Z"/>
</g>

<g id="Layer0_0_MEMBER_4_FILL">
<path fill="#FF6600" stroke="none" d="
M 235.75 30.2
Q 235.75 27.5 234.5 26.1 233.3 24.75 231.25 24.75 229.2 24.75 228 26.15 226.8 27.5 226.8 30.2
L 226.8 69.1
Q 226.8 71.75 228.05 73.15 229.25 74.55 231.25 74.55 233.25 74.55 234.5 73.2 235.75 71.9 235.75 69.1
L 235.75 30.2 Z"/>
</g>

<g id="Layer0_0_MEMBER_5_FILL">
<path fill="#FF6600" stroke="none" d="
M 277.35 48.95
Q 276.2 45.65 273.75 43.15 271.45 40.75 268.1 39.4 264.75 38.1 260.7 38.1 256.8 38.1 253.35 39.4 250.15 40.65 247.7 43.1 245.45 45.45 244.15 48.85 242.9 52.25 242.9 56.35 242.9 60.45 244.15 63.7 245.35 67.05 247.75 69.5 250.15 71.9 253.35 73.25 256.7 74.55 260.7 74.55 264.75 74.55 268.1 73.25 271.3 72 273.75 69.55 276.1 67.1 277.35 63.7 278.6 60.4 278.6 56.35 278.6 52.2 277.35 48.95
M 256.05 46.1
Q 258.1 44.75 260.7 44.75 264.8 44.75 267.2 47.8 269.6 50.8 269.6 56.35 269.6 61.75 267.2 64.8 264.8 67.9 260.7 67.9 258.1 67.9 256 66.5 254 65 252.95 62.45 251.9 59.85 251.9 56.35 251.9 52.75 253 50.1 254.05 47.5 256.05 46.1 Z"/>
</g>

<g id="Layer0_0_MEMBER_6_FILL">
<path fill="#FF6600" stroke="none" d="
M 297.7 46.85
Q 299 45.8 300.95 45.8 302.4 45.8 304.25 46.4 306.15 47.05 306.65 47.05 307.9 47.05 309.1 45.95 310.25 44.9 310.25 43.25 310.25 40.95 307.55 39.5 304.95 38.1 302.1 38.1 299.25 38.1 297.55 39.5 295.9 40.95 294.25 43.7 294.2 40.95 293.2 39.5 292.25 38.1 289.95 38.1 285.6 38.1 285.6 44.15
L 285.6 69.1
Q 285.6 71.8 286.85 73.2 288.15 74.55 290.05 74.55 292.05 74.55 293.3 73.2 294.55 71.9 294.55 69.1
L 294.55 61.6
Q 294.55 57.6 294.85 54.75 295.1 51.9 295.8 49.9 296.45 47.95 297.7 46.85 Z"/>
</g>

<g id="Layer0_0_MEMBER_7_FILL">
<path fill="#FF6600" stroke="none" d="
M 138.1 81.85
Q 138.1 79.95 136.9 79.75 120.4 76.85 103.55 81.4 86.5 86 71.85 97.55 71.1 98.2 71.5 99.3 71.95 100.4 72.7 99.9 101.25 81.65 136.85 83.65 138.1 83.75 138.1 81.85 Z"/>
</g>
</defs>

<g transform="matrix( 1.3712005615234375, 0, 0, 1.3712005615234375, -58.75,-30.5) ">
<use xlink:href="#Layer0_0_MEMBER_0_FILL"/>
</g>

<g transform="matrix( 1.3712005615234375, 0, 0, 1.3712005615234375, -58.75,-30.5) ">
<use xlink:href="#Layer0_0_MEMBER_1_FILL"/>
</g>

<g transform="matrix( 1.3712005615234375, 0, 0, 1.3712005615234375, -58.75,-30.5) ">
<use xlink:href="#Layer0_0_MEMBER_2_FILL"/>
</g>

<g transform="matrix( 1.3712005615234375, 0, 0, 1.3712005615234375, -58.75,-30.5) ">
<use xlink:href="#Layer0_0_MEMBER_3_FILL"/>
</g>

<g transform="matrix( 1.3712005615234375, 0, 0, 1.3712005615234375, -58.75,-30.5) ">
<use xlink:href="#Layer0_0_MEMBER_4_FILL"/>
</g>

<g transform="matrix( 1.3712005615234375, 0, 0, 1.3712005615234375, -58.75,-30.5) ">
<use xlink:href="#Layer0_0_MEMBER_5_FILL"/>
</g>

<g transform="matrix( 1.3712005615234375, 0, 0, 1.3712005615234375, -58.75,-30.5) ">
<use xlink:href="#Layer0_0_MEMBER_6_FILL"/>
</g>

<g transform="matrix( 1.3712005615234375, 0, 0, 1.3712005615234375, -58.75,-30.5) ">
<use xlink:href="#Layer0_0_MEMBER_7_FILL"/>
</g>
</svg>
