<svg width="26" height="20" fill="none" xmlns="http://www.w3.org/2000/svg"><path d="M16.605 14.195h-6.7V2.125h6.7v12.07z" fill="#6C6BBD"/><path d="M10.333 8.176a7.67 7.67 0 012.922-6.054C11.94 1.096 10.285.462 8.53.462A7.637 7.637 0 00.887 8.127a7.637 7.637 0 007.644 7.666c1.802 0 3.409-.635 4.724-1.66-1.802-1.318-2.922-3.515-2.922-5.957z" fill="#EB001B"/><path d="M25.642 8.176a7.637 7.637 0 01-7.645 7.666c-1.802 0-3.408-.635-4.723-1.66 1.802-1.416 2.921-3.565 2.921-6.055 0-2.49-1.12-4.638-2.921-6.054 1.315-1.026 2.97-1.66 4.723-1.66 4.188.097 7.645 3.515 7.645 7.763z" fill="#0099DF"/><path d="M18.864 17.625c.098 0 .195 0 .292.049l-.146.44c-.097-.05-.195-.05-.243-.05-.292 0-.439.196-.439.538v1.123h-.438v-2.051h.438v.244c.098-.195.244-.293.536-.293zm-1.655.44h-.73v.927c0 .196.048.342.291.342.098 0 .244-.049.39-.098l.146.391c-.146.098-.39.147-.536.147-.535 0-.681-.293-.681-.733v-.928h-.39v-.39h.39v-.635h.438v.635h.73l-.048.342zm-5.649.44c.049-.294.244-.49.536-.49.292 0 .487.196.536.49H11.56zm1.51.194c0-.634-.39-1.074-.974-1.074s-1.023.44-1.023 1.074c0 .635.439 1.075 1.023 1.075.292 0 .584-.098.828-.293l-.195-.342c-.146.146-.39.195-.584.195-.293 0-.536-.146-.585-.488h1.51v-.147zm1.947-.488a1.216 1.216 0 00-.633-.195c-.243 0-.39.098-.39.244s.147.195.342.195l.194.05c.439.048.73.243.73.585 0 .39-.34.684-.924.684-.341 0-.633-.098-.877-.245l.195-.341c.146.097.39.195.682.195.292 0 .487-.098.487-.244 0-.098-.098-.195-.341-.195l-.195-.05c-.536-.097-.779-.292-.779-.634 0-.39.34-.635.876-.635.293 0 .585.049.828.195l-.194.391zm5.454-.146c-.097 0-.195 0-.243.048-.098 0-.147.05-.244.098-.097.049-.097.147-.097.244 0 .098-.049.147-.049.244 0 .098 0 .196.049.244.048.05.097.147.146.196.048.049.146.098.195.146.097.05.146.05.243.05s.195 0 .244-.05c.097 0 .146-.049.194-.097.049-.05.098-.147.146-.196.049-.097.049-.146.049-.244s0-.195-.049-.244c-.048-.146-.097-.244-.146-.293-.048-.049-.097-.098-.194-.098-.098-.048-.147-.048-.244-.048zm0-.44c.146 0 .292 0 .438.098.146.049.244.146.341.244.098.098.195.195.244.342.048.146.097.293.097.44 0 .146-.049.243-.097.39a1.484 1.484 0 01-.244.342.784.784 0 01-.34.195c-.147.098-.293.098-.439.098-.146 0-.292 0-.438-.098a.784.784 0 01-.341-.195 1.483 1.483 0 01-.244-.342c-.048-.147-.097-.293-.097-.44 0-.146.049-.293.098-.44.048-.146.145-.243.243-.34.097-.099.195-.196.34-.245.147-.049.293-.049.439-.049zM8.98 18.7c0-.341.243-.634.633-.634s.633.293.633.634a.615.615 0 01-.633.635.615.615 0 01-.633-.635zm1.655 0v-1.025h-.438v.244c-.146-.195-.39-.293-.682-.293-.584 0-1.022.44-1.022 1.074 0 .635.438 1.075 1.022 1.075.292 0 .487-.098.633-.293v.244h.438v-1.026h.05zm-2.532 1.026v-1.27c0-.488-.292-.83-.779-.83a.94.94 0 00-.73.342.785.785 0 00-.682-.342c-.195 0-.438.049-.584.293v-.244h-.439v2.05h.439v-1.122c0-.342.194-.537.487-.537.292 0 .438.195.438.537v1.123h.438v-1.123c0-.342.195-.537.487-.537s.438.195.438.537v1.123h.487z" fill="#231F20"/></svg>
