<svg width="26" height="20" fill="none" xmlns="http://www.w3.org/2000/svg"><path d="M5.862 18.641a.61.61 0 01.63-.63c.387 0 .629.291.629.63a.61.61 0 01-.63.63c-.387.048-.629-.243-.629-.63zm1.646 0v-1.017h-.436v.29a.847.847 0 00-.677-.338c-.581 0-1.017.436-1.017 1.065 0 .63.436 1.065 1.017 1.065.29 0 .484-.097.629-.29v.242h.436V18.64h.048zm14.864 0a.61.61 0 01.63-.63c.387 0 .629.291.629.63a.61.61 0 01-.63.63c-.436.048-.63-.243-.63-.63zm1.598 0v-1.84h-.436v1.114c-.145-.194-.34-.34-.63-.34-.58 0-1.016.485-1.016 1.066 0 .63.435 1.065 1.016 1.065.29 0 .485-.097.63-.29v.242h.436V18.64zm-11.04-.63c.291 0 .485.194.533.485h-1.065c.049-.29.242-.484.533-.484zm.05-.435c-.582 0-1.018.436-1.018 1.065 0 .63.436 1.065 1.017 1.065.29 0 .581-.097.823-.29l-.193-.34a.93.93 0 01-.581.194c-.29 0-.533-.145-.581-.484h1.5v-.145c-.048-.63-.435-1.065-.968-1.065zm5.276 1.065a.61.61 0 01.63-.63c.387 0 .63.291.63.63a.61.61 0 01-.63.63c-.387.048-.63-.243-.63-.63zm1.647 0v-1.017h-.436v.29c-.145-.193-.339-.338-.63-.338-.58 0-1.016.436-1.016 1.065 0 .63.435 1.065 1.016 1.065.291 0 .485-.097.63-.29v.242h.436V18.64zm-4.116 0c0 .63.436 1.065 1.065 1.065.29 0 .485-.048.727-.242l-.194-.339c-.145.097-.339.194-.533.194a.61.61 0 01-.629-.63c0-.387.242-.629.63-.629.193 0 .387.049.532.194l.194-.34c-.194-.241-.388-.338-.727-.338-.629 0-1.065.484-1.065 1.065zm5.665-1.065c-.242 0-.436.097-.533.29v-.242h-.435v2.034h.435v-1.114c0-.339.146-.532.436-.532.097 0 .194 0 .29.048l.146-.387c-.145-.049-.242-.097-.34-.097zm-11.765.242c-.194-.145-.484-.194-.823-.194-.533 0-.823.242-.823.63 0 .339.242.532.678.58l.193.05c.242.047.34.096.34.193 0 .145-.146.242-.485.242-.29 0-.533-.097-.678-.194l-.194.34c.243.193.533.241.872.241.581 0 .92-.29.92-.678 0-.339-.242-.532-.726-.58l-.194-.05c-.194-.047-.339-.047-.339-.193 0-.145.145-.242.387-.242.242 0 .485.097.63.194l.242-.339zm5.665-.242c-.242 0-.436.097-.533.29v-.242h-.436v2.034h.436v-1.114c0-.339.145-.532.436-.532.096 0 .193 0 .29.048l.145-.436c-.145 0-.242-.048-.338-.048zm-3.777.048h-.726v-.63h-.436v.63h-.387v.436h.387v.92c0 .484.194.726.726.726a.975.975 0 00.533-.145l-.145-.387c-.146.096-.29.096-.388.096-.242 0-.29-.145-.29-.338v-.872h.726v-.436zM5.04 19.658v-1.26c0-.483-.29-.822-.775-.822a.935.935 0 00-.726.339.847.847 0 00-.678-.34c-.193 0-.435.05-.58.291v-.242h-.436v2.034h.435v-1.114c0-.339.194-.532.484-.532s.436.193.436.532v1.114h.436v-1.114c0-.339.194-.532.484-.532s.436.193.436.532v1.114h.484z" fill="#231F20"/><path d="M16.213 14.23H9.551V2.26h6.662v11.968z" fill="#FF5F00"/><path d="M9.977 8.222c0-2.42 1.114-4.6 2.905-6.004C11.575 1.202 9.93.572 8.186.572A7.583 7.583 0 00.584 8.173a7.583 7.583 0 007.602 7.602c1.791 0 3.389-.63 4.696-1.646-1.791-1.308-2.905-3.486-2.905-5.907z" fill="#EB001B"/><path d="M25.2 8.222a7.583 7.583 0 01-7.602 7.601c-1.791 0-3.389-.63-4.696-1.646 1.791-1.404 2.905-3.534 2.905-6.003 0-2.47-1.114-4.6-2.905-6.004C14.209 1.153 15.855.524 17.598.524 21.762.62 25.2 4.01 25.2 8.222z" fill="#F79E1B"/></svg>
