<svg width="42" height="12" fill="none" xmlns="http://www.w3.org/2000/svg"><path d="M23.693 1.725l-2.543 5.48h-.257V.544h-3.632v11.2h3.012c.817 0 1.543-.47 1.892-1.196l2.557-5.464h.258v6.66h3.632V.545h-3.057c-.787 0-1.529.469-1.862 1.18zM10.193 2.013L8.694 7.204h-.257L6.923 2.013A2.043 2.043 0 004.956.545H1.369v11.2H5v-6.66h.258l2.088 6.66H9.77l2.088-6.66h.258v6.66h3.632V.545H12.16c-.908 0-1.725.59-1.967 1.468zM30.126 5.54v6.205h3.632V8.112h3.905a3.877 3.877 0 003.663-2.573h-11.2z" fill="#319B42"/><path d="M37.557.545h-8.082c.5 2.663 2.83 4.54 5.63 4.54h6.281a4.34 4.34 0 00.076-.787c0-2.164-1.74-3.753-3.905-3.753z" fill="url(#paint0_linear)"/><defs><linearGradient id="paint0_linear" x1="29.475" y1="2.815" x2="41.462" y2="2.815" gradientUnits="userSpaceOnUse"><stop stop-color="#00A3E1"/><stop offset=".304" stop-color="#009ADD"/><stop offset=".799" stop-color="#0082D4"/><stop offset="1" stop-color="#0076CF"/></linearGradient></defs></svg>
