
<svg xmlns="http://www.w3.org/2000/svg" version="1.1" xmlns:xlink="http://www.w3.org/1999/xlink" preserveAspectRatio="none" x="0px" y="0px" width="500px" height="100px" viewBox="0 0 500 100">
<defs>
<g id="Layer0_0_FILL">
<path fill="#FFFFFF" stroke="none" d="
M 500 100
L 500 0 0 0 0 100 500 100
M 491.7 42.85
Q 491.45 44.2 490.35 45.25
L 473.85 61.45 477.75 84.1
Q 477.9 85.6 477.4 86.95 476.85 88.15 475.7 88.95 474.65 89.75 473.2 89.95 471.8 90.15 470.55 89.4
L 450 78.65 429.6 89.4
Q 428.3 90.15 426.85 89.95 425.55 89.75 424.3 88.95 423.15 88.15 422.7 86.95 422.05 85.6 422.35 84.1
L 426.25 61.45 409.7 45.35
Q 408.65 44.2 408.35 42.85 408 41.55 408.45 40.1 408.9 38.85 409.9 37.9 411.05 36.9 412.55 36.85
L 435.3 33.45 445.55 12.75
Q 446.25 11.35 447.4 10.6 448.65 9.9 450 10 451.4 10 452.65 10.6 453.8 11.4 454.55 12.75
L 464.75 33.45 487.55 36.85
Q 489.15 36.9 490.1 37.9 491.15 38.85 491.55 40.1 492.05 41.55 491.7 42.85
M 364.75 33.45
L 387.55 36.85
Q 389.15 36.9 390.1 37.9 391.15 38.85 391.55 40.1 392.05 41.55 391.7 42.85 391.45 44.2 390.35 45.25
L 373.85 61.45 377.75 84.1
Q 377.9 85.6 377.4 86.95 376.85 88.15 375.7 88.95 374.65 89.75 373.2 89.95 371.8 90.15 370.55 89.4
L 350 78.65 329.6 89.4
Q 328.3 90.15 326.85 89.95 325.55 89.75 324.3 88.95 323.15 88.15 322.7 86.95 322.05 85.6 322.35 84.1
L 326.25 61.45 309.7 45.35
Q 308.65 44.2 308.35 42.85 308 41.55 308.45 40.1 308.9 38.85 309.9 37.9 311.05 36.9 312.55 36.85
L 335.3 33.45 345.55 12.75
Q 346.25 11.35 347.4 10.6 348.65 9.9 350 10 351.4 10 352.65 10.6 353.8 11.4 354.55 12.75
L 364.75 33.45
M 291.7 42.85
Q 291.45 44.2 290.35 45.25
L 273.85 61.45 277.75 84.1
Q 277.9 85.6 277.4 86.95 276.85 88.15 275.7 88.95 274.65 89.75 273.2 89.95 271.8 90.15 270.55 89.4
L 250 78.65 229.6 89.4
Q 228.3 90.15 226.85 89.95 225.55 89.75 224.3 88.95 223.15 88.15 222.7 86.95 222.05 85.6 222.35 84.1
L 226.25 61.45 209.7 45.35
Q 208.65 44.2 208.35 42.85 208 41.55 208.45 40.1 208.9 38.85 209.9 37.9 211.05 36.9 212.55 36.85
L 235.3 33.45 245.55 12.75
Q 246.25 11.35 247.4 10.6 248.65 9.9 250 10 251.4 10 252.65 10.6 253.8 11.4 254.55 12.75
L 264.75 33.45 287.55 36.85
Q 289.15 36.9 290.1 37.9 291.15 38.85 291.55 40.1 292.05 41.55 291.7 42.85
M 164.75 33.45
L 187.55 36.85
Q 189.15 36.9 190.1 37.9 191.15 38.85 191.55 40.1 192.05 41.55 191.7 42.85 191.45 44.2 190.35 45.25
L 173.85 61.45 177.75 84.1
Q 177.9 85.6 177.4 86.95 176.85 88.15 175.7 88.95 174.65 89.75 173.2 89.95 171.8 90.15 170.55 89.4
L 150 78.65 129.6 89.4
Q 128.3 90.15 126.85 89.95 125.55 89.75 124.3 88.95 123.15 88.15 122.7 86.95 122.05 85.6 122.35 84.1
L 126.25 61.45 109.7 45.35
Q 108.65 44.2 108.35 42.85 108 41.55 108.45 40.1 108.9 38.85 109.9 37.9 111.05 36.9 112.55 36.85
L 135.3 33.45 145.55 12.75
Q 146.25 11.35 147.4 10.6 148.65 9.9 150 10 151.4 10 152.65 10.6 153.8 11.4 154.55 12.75
L 164.75 33.45
M 91.7 42.85
Q 91.45 44.2 90.35 45.25
L 73.85 61.45 77.75 84.1
Q 77.9 85.6 77.4 86.95 76.85 88.15 75.7 88.95 74.65 89.75 73.2 89.95 71.8 90.15 70.55 89.4
L 50 78.65 29.6 89.4
Q 28.3 90.15 26.85 89.95 25.55 89.75 24.3 88.95 23.15 88.15 22.7 86.95 22.05 85.6 22.35 84.1
L 26.25 61.45 9.7 45.35
Q 8.65 44.2 8.35 42.85 8 41.55 8.45 40.1 8.9 38.85 9.9 37.9 11.05 36.9 12.55 36.85
L 35.3 33.45 45.55 12.75
Q 46.25 11.35 47.4 10.6 48.65 9.9 50 10 51.4 10 52.65 10.6 53.8 11.4 54.55 12.75
L 64.75 33.45 87.55 36.85
Q 89.15 36.9 90.1 37.9 91.15 38.85 91.55 40.1 92.05 41.55 91.7 42.85 Z"/>
</g>
</defs>

<g transform="matrix( 1, 0, 0, 1, 0,0) ">
<use xlink:href="#Layer0_0_FILL"/>
</g>
</svg>
